<svg xmlns="http://www.w3.org/2000/svg" viewBox="0 0 256 256" width="256" height="256"><g stroke="#1b1530" stroke-width="22" stroke-linejoin="round" stroke-linecap="round"><path fill="#ffd23f" d="M36 196V84l50 54 42-82 42 82 50-54v112z"/><circle cx="36" cy="80" r="16" fill="#ffd23f"/><circle cx="128" cy="52" r="16" fill="#ffd23f"/><circle cx="220" cy="80" r="16" fill="#ffd23f"/><rect x="30" y="180" width="196" height="40" rx="10" fill="#ffb21c"/></g><g><path fill="#ffd23f" d="M36 196V84l50 54 42-82 42 82 50-54v112z"/><circle cx="36" cy="80" r="16" fill="#ffd23f"/><circle cx="128" cy="52" r="16" fill="#ffd23f"/><circle cx="220" cy="80" r="16" fill="#ffd23f"/><rect x="30" y="180" width="196" height="40" rx="10" fill="#ffb21c"/></g><circle cx="80" cy="200" r="10" fill="#ff4f6d" stroke="#1b1530" stroke-width="6"/><circle cx="128" cy="200" r="12" fill="#3a96ff" stroke="#1b1530" stroke-width="6"/><circle cx="176" cy="200" r="10" fill="#6aea4f" stroke="#1b1530" stroke-width="6"/><path d="M58 110l20 22" stroke="#fff" stroke-opacity=".6" stroke-width="10" stroke-linecap="round"/></svg>