<svg xmlns="http://www.w3.org/2000/svg" viewBox="0 0 256 256" width="256" height="256"><g stroke="#1b1530" stroke-width="22" stroke-linejoin="round" stroke-linecap="round"><rect x="44" y="112" width="168" height="114" rx="12" fill="#ff5fa2"/><rect x="30" y="80" width="196" height="46" rx="12" fill="#ff7ab6"/><path fill="#ffd23f" d="M128 80c-30-46-80-40-70-10 6 18 40 14 70 10zM128 80c30-46 80-40 70-10-6 18-40 14-70 10z"/></g><g><rect x="44" y="112" width="168" height="114" rx="12" fill="#ff5fa2"/><rect x="30" y="80" width="196" height="46" rx="12" fill="#ff7ab6"/><path fill="#ffd23f" d="M128 80c-30-46-80-40-70-10 6 18 40 14 70 10zM128 80c30-46 80-40 70-10-6 18-40 14-70 10z"/></g><rect x="112" y="80" width="32" height="146" fill="#ffd23f" stroke="#1b1530" stroke-width="8"/><rect x="44" y="90" width="50" height="12" rx="6" fill="#ffffff" fill-opacity="0.55"/></svg>